<svg xmlns="http://www.w3.org/2000/svg" width="24.358" height="31.314" viewBox="0 0 24.358 31.314">
  <g id="Group_248" data-name="Group 248" transform="translate(-891.133 -776.167)">
    <path id="Path_522" data-name="Path 522" d="M903.273,901.605H891.879c-.692,0-.746-.055-.746-.732q0-7.164,0-14.329c0-.622.057-.683.676-.683l23.123,0c.447,0,.557.1.558.541q0,7.332,0,14.663c0,.432-.123.542-.6.542H903.273Zm-2.024-4.2h4.109c-.023-.125-.035-.232-.062-.336-.245-.944-.478-1.892-.749-2.829a.75.75,0,0,1,.208-.826,1.965,1.965,0,0,0-.032-2.8,1.992,1.992,0,0,0-2.832.018,1.953,1.953,0,0,0-.007,2.793.73.73,0,0,1,.2.8C901.792,895.268,901.53,896.319,901.249,897.4Z" transform="translate(0 -94.125)" fill="#fff"/>
    <path id="Path_523" data-name="Path 523" d="M925.08,787.728c0,.718,0,1.435,0,2.153,0,.474-.1.575-.561.577q-1.615.007-3.229,0c-.4,0-.518-.119-.52-.544-.006-1.151,0-2.3-.006-3.452a5.956,5.956,0,0,0-11.907-.246c-.033,1.175-.008,2.351-.009,3.527,0,.654-.064.716-.728.716-1,0-2,0-3.006,0-.48,0-.587-.087-.581-.555a47.553,47.553,0,0,1,.111-4.782,10.257,10.257,0,0,1,20.313-.244c.143.936.121,1.9.175,2.848Z" transform="translate(-11.492)" fill="#fff"/>
  </g>
</svg>
