<svg xmlns="http://www.w3.org/2000/svg" width="115.578" height="115.981" viewBox="0 0 115.578 115.981">
  <g id="Group_252" data-name="Group 252" transform="translate(-725.198 -1159.111)">
    <path id="Path_525" data-name="Path 525" d="M783.414,1275.087c-3.615.015-5.741-1.614-7.426-4.23a5.378,5.378,0,0,0-2.891-2.371,52.391,52.391,0,0,1-41.491-41.113,5.208,5.208,0,0,0-2.673-4.011,7.484,7.484,0,0,1,.159-13.044,4.276,4.276,0,0,0,2.365-3.324,53.4,53.4,0,0,1,8.378-20.1,4.225,4.225,0,0,0,.363-2.987c-1.492-6.4,3.443-11.3,9.845-9.811a4.535,4.535,0,0,0,3.17-.541,56.582,56.582,0,0,1,20.683-8.438,3.648,3.648,0,0,0,2.125-1.685,7.8,7.8,0,0,1,13.955-.008,3.65,3.65,0,0,0,2.123,1.692,56.533,56.533,0,0,1,20.684,8.436,4.539,4.539,0,0,0,3.168.546c6.4-1.494,11.345,3.406,9.855,9.8a4.223,4.223,0,0,0,.357,2.988,57.349,57.349,0,0,1,8.546,20.347,4.867,4.867,0,0,0,2.032,2.808c5.148,3.141,5.487,10.31.34,13.328a5.123,5.123,0,0,0-2.633,3.718c-4.97,21.623-18.3,35.2-39.653,40.925-2.364.633-4.347,1-5.516,3.7A6.006,6.006,0,0,1,783.414,1275.087Zm-7.952-10.582c4.374-6.819,11.091-6.271,15-.261,20.393-3.571,35.317-17.878,39.6-37.87.293-1.366.235-2.045-1.072-2.91-5.233-3.466-5.064-9.744.163-13.335.542-.372,1.183-1.28,1.082-1.806a47.231,47.231,0,0,0-8.448-19.625c-7.46,1.83-11.779-2-10.941-9.387a3.015,3.015,0,0,0-1.209-2.263,45.348,45.348,0,0,0-17.293-7.221,3.27,3.27,0,0,0-2.634,1.108c-3.906,5.123-9.472,5.083-13.465-.11a3.033,3.033,0,0,0-2.431-1.041,46.8,46.8,0,0,0-18.887,8.241c2.032,8.712-3.984,12.652-10.77,10.719a46.994,46.994,0,0,0-8.551,20.667c5.745,3.411,7.114,9.586,2.572,13.022-2.606,1.972-2.463,3.673-1.731,6.219C742.157,1248.5,755.428,1260.034,775.462,1264.505Z" fill="#0f6935"/>
    <path id="Path_526" data-name="Path 526" d="M763.132,1251.6l2-11.138-1.2-.239-2.367,10.691c-2.533-2.224-4.823-4.079-6.891-6.155a3.7,3.7,0,0,1-.622-2.725c.294-2.381.823-4.735,1.283-7.094.875-4.489,3.094-7.751,7.67-9.347,3.548-1.239,6.919-2.988,10.6-4.611,2.253,4.47,4.379,8.865,6.706,13.15a4.793,4.793,0,0,0,2.586,1.817c1.494.507,2.262-.461,2.9-1.8,2.074-4.332,4.286-8.6,6.6-13.2,4.765,2.149,9.63,3.934,14.02,6.522,1.814,1.069,2.72,3.805,3.824,5.9a10.142,10.142,0,0,1,.66,3.246c.364,2.529,1.791,5.714.771,7.45-1.681,2.864-4.954,4.792-7.876,7.4-.922-4.13-1.7-7.629-2.485-11.127l-1.123.223a58.605,58.605,0,0,0,1.406,7.856c.892,2.829.017,4.1-2.6,5.181C786.721,1258.678,774.857,1257.993,763.132,1251.6Z" fill="#0f6935"/>
    <path id="Path_527" data-name="Path 527" d="M783.19,1190.819a14.506,14.506,0,0,1,14.477,14.789,14.664,14.664,0,1,1-29.327-.1A14.5,14.5,0,0,1,783.19,1190.819Z" fill="#0f6935"/>
  </g>
</svg>
