<svg xmlns="http://www.w3.org/2000/svg" width="107.099" height="107.135" viewBox="0 0 107.099 107.135">
  <g id="Group_253" data-name="Group 253" transform="translate(-398.48 -773.12)">
    <path id="Path_528" data-name="Path 528" d="M446,773.12h11.96a10.811,10.811,0,0,0,1.643.5,53.6,53.6,0,0,1,45.524,46.006,3.039,3.039,0,0,0,.447.885v11.96a5.682,5.682,0,0,0-.441,1.072c-.3,1.549-.478,3.122-.831,4.657a53.846,53.846,0,0,1-46.992,41.755,45.877,45.877,0,0,1-14.434-.63q-27.224-5.49-39.386-30.392a51.5,51.5,0,0,1-4.74-17.158,46.559,46.559,0,0,1,.258-12.093,53.978,53.978,0,0,1,6.887-20q13.421-22.17,39.106-26.1A4.027,4.027,0,0,0,446,773.12Zm6.091,99.753c25.444-.012,46.271-20.686,46.271-45.93a46.269,46.269,0,1,0-46.271,45.93Z" fill="#136a36"/>
    <path id="Path_529" data-name="Path 529" d="M487.182,861.4h-6.812c.538-1.171.962-2.233,1.524-3.216.132-.23.732-.264,1.117-.266,3.008-.019,6.017.016,9.025-.026a3.98,3.98,0,0,0,1.815-.439c4.253-2.368,8.607-2.391,13.186-1,2.525.77,5.208,1.014,7.807,1.558a1.534,1.534,0,0,1,.894.792c2.835,6.055,5.527,12.18,8.51,18.161a5.2,5.2,0,0,1-.115,5.244,1.616,1.616,0,0,0-.071,1.308c2.537,4.533,1.024,8.018-4.134,9.185a5.339,5.339,0,0,1-1.542,4.017,4.986,4.986,0,0,1-4.245,1.22,4.8,4.8,0,0,1-3.018,4.277c-1.855.708-3.532.1-5.182-.949a4.923,4.923,0,0,1-3.066,2.8,4.611,4.611,0,0,1-4.129-.668c-1.236,1.481-2.355,3.362-4.745,2.421-1.74-.685-2.233-2.184-2.02-4.145-1.536,1.469-3.062,2.391-4.976,1.051-1.6-1.12-1.862-2.117-1.21-4.754-1.511,1.131-3.037,1.57-4.663.4-1.724-1.245-1.921-2.924-1.21-4.986-.425.261-.664.41-.906.554a3.553,3.553,0,0,1-4.689-.69,4.067,4.067,0,0,1-.285-4.722c.7-1.02,1.385-2.061,2.148-3.036a1.065,1.065,0,0,0,0-1.563c-1.031-1.291-1.956-2.667-2.991-3.953a1.427,1.427,0,0,1-.179-1.817c.349-.616.612-1.282.987-2.083,1.473,1.942,2.89,3.768,4.255,5.633a1.474,1.474,0,0,0,1.481.7c2.685-.192,4.155,1.256,4.138,3.97-.01,1.6.136,1.754,1.734,1.829a3.7,3.7,0,0,1,3.432,3.3,1.737,1.737,0,0,0,1.941,1.645,3.1,3.1,0,0,1,3.31,2.481c.319,1.547,1.512,1.992,2.591,2.688.63.406,1.146.985,1.768,1.406a14,14,0,0,0,2.9,1.733c.794.289,1.464-.305,1.808-1.15s-.262-1.141-.757-1.532c-1.68-1.329-3.345-2.679-5.043-3.984-.725-.557-1.252-1.149-.684-2.066.4-.646,1.341-.568,2.29.127q4.228,3.1,8.452,6.2c1.4,1.024,2.539,1,3.351-.064a2.453,2.453,0,0,0-.757-3.532c-3.155-2.369-6.3-4.753-9.473-7.1-.768-.569-1.169-1.2-.673-2.1.381-.689,1.246-.669,2.156,0q5.628,4.145,11.249,8.3c1.278.944,2.492.949,3.189,0a2.32,2.32,0,0,0-.626-3.5c-4.218-3.207-8.423-6.432-12.655-9.621-.762-.575-1.062-1.274-.522-2.015.573-.785,1.4-.559,2.095-.044q6.481,4.794,12.949,9.605c1.556,1.155,2.97,1.192,3.9.1a3,3,0,0,0-.473-4.4q-7.292-6.648-14.61-13.268-2.463-2.236-4.924-4.474a4.209,4.209,0,0,0-6.69,2.248,8.187,8.187,0,0,1-6.093,6.693,4.4,4.4,0,0,1-3.931-.781,1.913,1.913,0,0,1-.635-2.6,16.754,16.754,0,0,0,1.241-5.673A37.144,37.144,0,0,1,487.182,861.4Z" transform="translate(-46.621 -51.704)" fill="#136a36"/>
    <path id="Path_530" data-name="Path 530" d="M597.878,841.967a9.368,9.368,0,0,1,1.535,1.8c1.814,3.664,3.54,7.372,5.3,11.063q2.466,5.182,4.935,10.362c.9,1.892.61,2.765-1.281,3.7-1.042.515-2.09,1.018-3.139,1.521-1.566.75-2.382.486-3.148-1.128-1.383-2.915-2.7-5.859-4.082-8.776q-3.146-6.663-6.335-13.308a1.788,1.788,0,0,1,.855-2.714q2-1.039,4.016-2.034C596.863,842.3,597.229,842.2,597.878,841.967Z" transform="translate(-121.033 -43.202)" fill="#136a36"/>
    <path id="Path_531" data-name="Path 531" d="M442.512,867.2c.31-.819.475-1.353.708-1.856q5.055-10.936,10.126-21.866a1.689,1.689,0,0,1,2.637-.945c1.212.6,2.412,1.216,3.615,1.831,1.65.843,1.936,1.658,1.15,3.379q-2.339,5.121-4.7,10.231-2.609,5.678-5.217,11.356c-.9,1.948-1.761,2.222-3.637,1.208-1.122-.607-2.3-1.125-3.362-1.822A7.132,7.132,0,0,1,442.512,867.2Z" transform="translate(-27.631 -43.367)" fill="#136a36"/>
    <path id="Path_552" data-name="Path 552" d="M446,773.12h11.96a10.811,10.811,0,0,0,1.643.5,53.6,53.6,0,0,1,45.524,46.006,3.039,3.039,0,0,0,.447.885v11.96a5.682,5.682,0,0,0-.441,1.072c-.3,1.549-.478,3.122-.831,4.657a53.846,53.846,0,0,1-46.992,41.755,45.877,45.877,0,0,1-14.434-.63q-27.224-5.49-39.386-30.392a51.5,51.5,0,0,1-4.74-17.158,46.559,46.559,0,0,1,.258-12.093,53.978,53.978,0,0,1,6.887-20q13.421-22.17,39.106-26.1A4.027,4.027,0,0,0,446,773.12Zm6.091,99.753c25.444-.012,46.271-20.686,46.271-45.93a46.269,46.269,0,1,0-46.271,45.93Z" fill="#136a36"/>
  </g>
</svg>
