<svg xmlns="http://www.w3.org/2000/svg" width="107.099" height="107.135" viewBox="0 0 107.099 107.135">
  <g id="Group_255" data-name="Group 255" transform="translate(-437.902 -1963.865)">
    <g id="Group_254" data-name="Group 254" transform="translate(-722.34 1212.384)">
      <path id="Path_532" data-name="Path 532" d="M1226.242,807.41a5.289,5.289,0,0,1,8.5-2.434c1.19-3.319,2.714-4.654,5.24-4.592s4,1.405,5.043,4.646a6,6,0,0,1,2.861-1.266,5.032,5.032,0,0,1,5.649,4.915c.017,8.476.074,16.953-.024,25.427a9.959,9.959,0,0,1-5.229,8.746,1.156,1.156,0,0,0-.648,1.162c.02,5.832.012,11.664.012,17.5a6.193,6.193,0,0,1-.01.667.759.759,0,0,1-.822.773.723.723,0,0,1-.716-.788c-.008-.2,0-.4,0-.593,0-5.659-.008-11.318.012-16.977,0-.6-.126-.773-.73-.58a7.67,7.67,0,0,1-2.27.3c-.523,0-.893-.209-.908-.749s.352-.754.875-.777a8.984,8.984,0,0,0,7.466-4.143,8.476,8.476,0,0,0,1.453-4.817c-.01-5.091,0-10.181,0-15.271a3.467,3.467,0,0,0-3.606-3.659q-5.563-.027-11.125,0a3.525,3.525,0,1,0,.012,7.043c2.695.007,5.39,0,8.084,0,.148,0,.3,0,.445,0,.537-.014.955.166.969.763s-.405.779-.941.789a11.8,11.8,0,0,0-7.1,2.426,12.032,12.032,0,0,0-4.916,9.3c0,.074,0,.148,0,.222,0,.555-.152,1.021-.81.995s-.761-.518-.742-1.059a13.921,13.921,0,0,1,1.117-5.1,13.693,13.693,0,0,1,5.43-6.293c.177-.11.407-.164.552-.493-.708,0-1.359,0-2.01,0a5.037,5.037,0,0,1-5.139-3.765c-.069-.219-.064-.485-.447-.444a5.113,5.113,0,0,1-4.817-2.179c-.013-.016-.045-.017-.067-.026a5.221,5.221,0,0,1-7.84.853V833.3a9.1,9.1,0,0,0,8.8,9.474c.547.038,1.026.107,1.01.783-.017.733-.559.763-1.112.747a12.15,12.15,0,0,1-2.765-.451v.846q0,8.489,0,16.977a2.9,2.9,0,0,1-.045.735.7.7,0,0,1-.784.54.686.686,0,0,1-.667-.592,3.888,3.888,0,0,1-.024-.665c0-5.906-.008-11.812.012-17.718a1.1,1.1,0,0,0-.638-1.092,10.205,10.205,0,0,1-5.292-9.1c-.055-7.561-.025-15.123-.01-22.685a4.806,4.806,0,0,1,2.945-4.665,4.9,4.9,0,0,1,5.412.737c.1.076.194.147.294.218A.205.205,0,0,0,1226.242,807.41Zm10.126,1.533c0,1.309,0,2.619,0,3.929,0,.3.009.488.43.481,2.027-.03,4.054-.02,6.081-.013.337,0,.555-.029.55-.464-.029-2.594.026-5.19-.069-7.78a3.477,3.477,0,0,0-3.552-3.192,3.535,3.535,0,0,0-3.436,3.482C1236.359,806.571,1236.368,807.757,1236.369,808.943Zm-8.73,2.572c0,.914-.015,1.828,0,2.741a3.579,3.579,0,0,0,3.846,3.529.638.638,0,0,0,.7-.573,4.824,4.824,0,0,1,2.231-3.1.671.671,0,0,0,.407-.629c-.024-1.629.036-3.262-.049-4.887a3.446,3.446,0,0,0-3.786-3.311,3.536,3.536,0,0,0-3.349,3.56C1227.628,809.737,1227.639,810.626,1227.639,811.515Zm-1.512,1.226c0-.666.017-1.21,0-1.751a3.543,3.543,0,0,0-7.084.013c-.027,1.109-.031,2.221,0,3.33a3.531,3.531,0,0,0,7.012.5A15.929,15.929,0,0,0,1226.127,812.741Zm25.844,1.979c0-2.245.071-4.338-.022-6.423a3.408,3.408,0,0,0-3.609-3.009,3.442,3.442,0,0,0-3.352,3.137c-.055,1.479,0,2.961-.024,4.441-.007.421.179.484.532.476.765-.018,1.531.019,2.3-.011A5.66,5.66,0,0,1,1251.971,814.72Z" transform="translate(-21.733 -16.199)" fill="#136a36"/>
      <path id="Path_533" data-name="Path 533" d="M1197.623,895.112a.874.874,0,0,1,.361-.664q3.219-3.218,6.439-6.439c.4-.4.836-.6,1.281-.143.422.431.208.848-.166,1.221q-3.251,3.24-6.494,6.488a.809.809,0,0,1-.988.276A.71.71,0,0,1,1197.623,895.112Z" transform="translate(-11.619 -60.585)" fill="#136a36"/>
      <path id="Path_534" data-name="Path 534" d="M1180.327,847.927h-4.376c-.578,0-1.175-.057-1.161-.805.013-.686.556-.758,1.126-.756q4.413.016,8.826,0c.578,0,1.17.02,1.151.79s-.62.771-1.19.77Q1182.515,847.923,1180.327,847.927Z" transform="translate(0 -39.599)" fill="#136a36"/>
      <path id="Path_535" data-name="Path 535" d="M1316.518,846.372c1.507,0,3.015.006,4.523,0,.545,0,1.034.085,1.051.747.019.711-.5.814-1.068.814h-8.972c-.5,0-.961-.088-1.067-.684-.089-.5.3-.865.935-.869C1313.453,846.364,1314.985,846.372,1316.518,846.372Z" transform="translate(-69.3 -39.6)" fill="#136a36"/>
      <path id="Path_536" data-name="Path 536" d="M1293.957,888.416a.738.738,0,0,1,1.077-.717,1.371,1.371,0,0,1,.341.279q3.25,3.243,6.5,6.488c.379.377.576.781.152,1.216s-.833.281-1.219-.106q-3.269-3.278-6.546-6.545A.772.772,0,0,1,1293.957,888.416Z" transform="translate(-60.64 -60.591)" fill="#136a36"/>
      <path id="Path_537" data-name="Path 537" d="M1198.384,791.366a.8.8,0,0,1,.634.329q3.272,3.273,6.548,6.543c.389.388.519.812.082,1.218-.4.376-.809.232-1.17-.13q-3.27-3.275-6.548-6.543a.833.833,0,0,1-.258-1A.669.669,0,0,1,1198.384,791.366Z" transform="translate(-11.606 -11.609)" fill="#136a36"/>
      <path id="Path_538" data-name="Path 538" d="M1254.147,774.137c0,1.528-.007,3.057,0,4.585,0,.509-.129.9-.708.914-.613.02-.8-.375-.8-.914q0-4.622,0-9.243c0-.555.237-.949.8-.93.526.018.72.4.714.929C1254.134,771.031,1254.147,772.584,1254.147,774.137Z" transform="translate(-39.615)" fill="#136a36"/>
      <path id="Path_539" data-name="Path 539" d="M1293.971,798.892a.8.8,0,0,1,.323-.693l6.54-6.537c.361-.36.777-.487,1.171-.107.43.414.278.836-.105,1.219q-3.273,3.266-6.54,6.537a.83.83,0,0,1-.928.279A.659.659,0,0,1,1293.971,798.892Z" transform="translate(-60.645 -11.59)" fill="#136a36"/>
      <path id="Path_540" data-name="Path 540" d="M1311.736,820.371a.689.689,0,0,1,.726.508.655.655,0,0,1-.332.879q-2.3,1-4.636,1.915a.748.748,0,0,1-.608-1.346c1.556-.675,3.132-1.3,4.7-1.947A.466.466,0,0,1,1311.736,820.371Z" transform="translate(-67.044 -26.37)" fill="#136a36"/>
      <path id="Path_541" data-name="Path 541" d="M1311.607,872.067c-.325-.132-.668-.269-1.009-.409q-1.673-.689-3.346-1.379c-.511-.21-.885-.523-.619-1.123.242-.546.686-.534,1.184-.323,1.382.588,2.773,1.155,4.158,1.736a.724.724,0,0,1,.5.935A.764.764,0,0,1,1311.607,872.067Z" transform="translate(-67.047 -50.964)" fill="#136a36"/>
      <path id="Path_542" data-name="Path 542" d="M1274.985,788.637a1.211,1.211,0,0,1,.054-.25c.612-1.477,1.223-2.954,1.848-4.425a.707.707,0,0,1,.981-.4.686.686,0,0,1,.415.969c-.6,1.508-1.222,3.007-1.853,4.5a.692.692,0,0,1-.864.4A.739.739,0,0,1,1274.985,788.637Z" transform="translate(-50.987 -7.606)" fill="#136a36"/>
      <path id="Path_543" data-name="Path 543" d="M1226.6,784.305a.715.715,0,0,1,.552-.772.693.693,0,0,1,.879.367q.969,2.272,1.882,4.567a.676.676,0,0,1-.408.911.656.656,0,0,1-.948-.3c-.666-1.532-1.292-3.082-1.931-4.626A.715.715,0,0,1,1226.6,784.305Z" transform="translate(-26.367 -7.608)" fill="#136a36"/>
      <path id="Path_544" data-name="Path 544" d="M1189.77,871.3a.72.72,0,0,1,.506-.735c1.455-.6,2.906-1.214,4.365-1.807a.715.715,0,0,1,1.019.445.693.693,0,0,1-.432.961c-1.474.621-2.949,1.239-4.437,1.823A.718.718,0,0,1,1189.77,871.3Z" transform="translate(-7.623 -50.955)" fill="#136a36"/>
      <path id="Path_545" data-name="Path 545" d="M1190.564,820.354a1.289,1.289,0,0,1,.563.173c1.273.526,2.54,1.064,3.816,1.582.5.2.939.47.711,1.078-.241.641-.747.578-1.29.347-1.334-.569-2.678-1.116-4.021-1.663a.776.776,0,0,1-.572-.908C1189.836,820.57,1190.1,820.376,1190.564,820.354Z" transform="translate(-7.616 -26.361)" fill="#136a36"/>
    </g>
    <path id="Path_546" data-name="Path 546" d="M446,773.12h11.96a10.811,10.811,0,0,0,1.643.5,53.6,53.6,0,0,1,45.524,46.006,3.039,3.039,0,0,0,.447.885v11.96a5.682,5.682,0,0,0-.441,1.072c-.3,1.549-.478,3.122-.831,4.657a53.846,53.846,0,0,1-46.992,41.755,45.877,45.877,0,0,1-14.434-.63q-27.224-5.49-39.386-30.392a51.5,51.5,0,0,1-4.74-17.158,46.559,46.559,0,0,1,.258-12.093,53.978,53.978,0,0,1,6.887-20q13.421-22.17,39.106-26.1A4.027,4.027,0,0,0,446,773.12Zm6.091,99.753c25.444-.012,46.271-20.686,46.271-45.93a46.269,46.269,0,1,0-46.271,45.93Z" transform="translate(39.422 1190.745)" fill="#136a36"/>
  </g>
</svg>
