<svg xmlns="http://www.w3.org/2000/svg" width="107.099" height="107.135" viewBox="0 0 107.099 107.135">
  <g id="Group_257" data-name="Group 257" transform="translate(-691.464 -2490.648)">
    <g id="Group_256" data-name="Group 256" transform="translate(307.419 1296.785)">
      <path id="Path_548" data-name="Path 548" d="M455.791,1240.544c2.181,0,4.252-.022,6.321.034.211.006.591.485.585.738-.054,2.424-.084,4.856-.324,7.265a10.494,10.494,0,0,1-1.094,2.593,5.305,5.305,0,0,0-.591,1.814q-.058,10.64,0,21.28a4.42,4.42,0,0,0,.518,1.952,14.122,14.122,0,0,1,1.748,7.776,5.182,5.182,0,0,0,5.335,5.664c.848.005,1.7.009,2.544,0,.747-.011,1.512-.125,1.469,1.047-.005.148.62.455.956.46q4.335.057,8.672.012c.761-.008,1.205.056,1.212,1.023s-.4,1.047-1.182,1.046q-22.663-.024-45.327-.013c-.376,0-.753-.04-1.2-.065v-1.983h10.68l.243-1.526c1.229,0,2.449,0,3.669,0a5.172,5.172,0,0,0,5.479-5.74,14.193,14.193,0,0,1,1.816-7.764,3.9,3.9,0,0,0,.46-1.738c.033-6.978.02-13.956.03-20.934a3.324,3.324,0,0,0-.976-2.729,1.7,1.7,0,0,1-.451-.794C455.546,1246.9,455.735,1243.8,455.791,1240.544Zm5.2,4.549c-.12-.942-.18-1.592-.291-2.234a1.366,1.366,0,0,0-1.438-1.233,1.459,1.459,0,0,0-1.59,1.213,7.233,7.233,0,0,0,.536,5.051c.175.356.683.808.988.774a1.555,1.555,0,0,0,1.085-.836A22.621,22.621,0,0,0,460.995,1245.093Z" transform="translate(-21.637 -18.503)" fill="#0f6935"/>
      <path id="Path_549" data-name="Path 549" d="M403.869,1274.838l13.073-26.528c-3.478-2.352-3.478-2.352-4.028-3.811,1.5-.253,2.948-.57,4.407-.692a1.748,1.748,0,0,1,1.258.808,3.846,3.846,0,0,0,4.7,1.928c3.229-1.015,6.421-2.158,9.587-3.355a19.922,19.922,0,0,1,6.927-1.641c.8-.006,1.022.271.989.995s-.008,1.451-.008,2.327c-4.6-.746-8.266,2.058-12.415,2.875-2.558.5-5.142.893-7.729,1.21a12.644,12.644,0,0,1-2.812-.323c.611,1.247,1.148,2.371,1.71,3.483,3.65,7.223,7.289,14.45,10.977,21.652.465.907.312,1.284-.571,1.752-5.278,2.793-10.777,4.366-16.8,3.25A23.53,23.53,0,0,1,403.869,1274.838Zm26.245-.389-12.265-24.286c-.18.271-.216.3-.216.331q-.024,11.569-.05,23.139c0,.682.317.841.927.829,1.465-.029,2.931-.012,4.4-.013ZM416.9,1250.389l-.23-.094-11.856,24.068H416.9Z" transform="translate(-7.244 -18.962)" fill="#0f6935"/>
      <path id="Path_550" data-name="Path 550" d="M486.81,1244.938v-3.314a16.146,16.146,0,0,1,6.949,1.219c3.307,1.261,6.613,2.541,9.983,3.61,2.557.81,3.743.19,5.307-1.985a1.9,1.9,0,0,1,1.464-.666c1.355.135,2.69.475,4.044.738-.408,1.533-.852,1.934-4.009,3.758l13.083,26.557a24.747,24.747,0,0,1-6.711,3.291c-7.007,2.186-13.462.578-19.686-2.779-.729-.393-.632-.795-.332-1.386q5.677-11.182,11.331-22.376c.478-.945.935-1.9,1.484-3.023-4.7,1.215-8.862-.246-13.049-1.551C493.462,1246.032,490.464,1244.136,486.81,1244.938Zm10.619,29.458h12.415v-24.005l-.243-.088Zm13.422-24.043-.233.1v23.91h12.066Z" transform="translate(-45.067 -18.984)" fill="#0f6935"/>
      <path id="Path_551" data-name="Path 551" d="M479.593,1238.475c-1.656,0-3.253.023-4.847-.032-.179-.007-.48-.464-.474-.706s.327-.651.524-.66c1.413-.06,2.831-.084,4.244-.022C480.014,1237.1,479.579,1237.825,479.593,1238.475Z" transform="translate(-39.349 -16.897)" fill="#0f6935"/>
    </g>
    <path id="Path_553" data-name="Path 553" d="M446,773.12h11.96a10.811,10.811,0,0,0,1.643.5,53.6,53.6,0,0,1,45.524,46.006,3.039,3.039,0,0,0,.447.885v11.96a5.682,5.682,0,0,0-.441,1.072c-.3,1.549-.478,3.122-.831,4.657a53.846,53.846,0,0,1-46.992,41.755,45.877,45.877,0,0,1-14.434-.63q-27.224-5.49-39.386-30.392a51.5,51.5,0,0,1-4.74-17.158,46.559,46.559,0,0,1,.258-12.093,53.978,53.978,0,0,1,6.887-20q13.421-22.17,39.106-26.1A4.027,4.027,0,0,0,446,773.12Zm6.091,99.753c25.444-.012,46.271-20.686,46.271-45.93a46.269,46.269,0,1,0-46.271,45.93Z" transform="translate(292.985 1717.528)" fill="#136a36"/>
  </g>
</svg>
