<svg xmlns="http://www.w3.org/2000/svg" width="70.907" height="70.928" viewBox="0 0 70.907 70.928">
  <g id="Group_262" data-name="Group 262" transform="translate(-996.781 -1275.715)">
    <path id="Path_567" data-name="Path 567" d="M1067.688,1309.594v3.184c-.021.141-.055.282-.062.424a32.206,32.206,0,0,1-.837,5.932,35.115,35.115,0,0,1-15.149,21.715,34.288,34.288,0,0,1-15.625,5.586c-.729.077-1.459.138-2.189.207h-3.183c-.117-.02-.234-.045-.352-.059-1.649-.2-3.317-.308-4.943-.626a34.608,34.608,0,0,1-16.385-8.032,35.319,35.319,0,0,1-11.539-33.446,34.471,34.471,0,0,1,8.65-17.208,34.853,34.853,0,0,1,21.275-11.2,34.4,34.4,0,0,1,14.048.857,34.978,34.978,0,0,1,19.721,13.707,34.556,34.556,0,0,1,6.364,16.766C1067.559,1308.133,1067.619,1308.864,1067.688,1309.594Zm-31.426,15.277v-.473q0-5.427,0-10.854c0-.188-.018-.352.2-.488a3.731,3.731,0,0,0,1.865-3.375c0-1.917.007-3.835,0-5.752a3.787,3.787,0,0,0-3.929-3.917q-2.207-.01-4.413,0a3.8,3.8,0,0,0-3.942,3.876c-.025,1.965-.02,3.932,0,5.9a3.689,3.689,0,0,0,1.772,3.212.557.557,0,0,1,.3.542q-.013,5.445-.006,10.89v.428h3.073l1.084-7.087a.249.249,0,0,1,.115.185c.339,2.215.674,4.43,1.022,6.643.016.1.152.26.235.262C1034.491,1324.878,1035.347,1324.871,1036.262,1324.871Zm-20.268-3.67-.044-.054c-.336.155-.677.3-1.006.468a6.869,6.869,0,0,0-2.435,1.832,2.078,2.078,0,0,0,0,2.813,7.22,7.22,0,0,0,1.574,1.36,16.963,16.963,0,0,0,5.08,2.015,50.874,50.874,0,0,0,11.736,1.46,56.023,56.023,0,0,0,13.22-1.172,21.778,21.778,0,0,0,5.813-2.019,6.045,6.045,0,0,0,2.087-1.7,2.08,2.08,0,0,0,.057-2.588,7.785,7.785,0,0,0-3.654-2.482,1.71,1.71,0,0,0,.241.275,1.292,1.292,0,0,1-.014,2.1,5.774,5.774,0,0,1-1.221.825,15.4,15.4,0,0,1-3.722,1.247,46.847,46.847,0,0,1-8.417,1.043,57.1,57.1,0,0,1-14.209-.974,14.6,14.6,0,0,1-4.293-1.455,5.09,5.09,0,0,1-1.245-1.017,1.1,1.1,0,0,1,0-1.466C1015.676,1321.53,1015.842,1321.37,1015.994,1321.2Zm9.928,2.289c.006-.1.013-.161.013-.22,0-3.075,0-6.15-.008-9.226a.73.73,0,0,0-.193-.431,5.427,5.427,0,0,1-1.478-3.6c-.025-2.17-.012-4.341.005-6.512a5.072,5.072,0,0,1,.706-2.44c.05-.089.095-.181.163-.313a6.367,6.367,0,0,0-.646-.07c-1.519-.005-3.039-.034-4.558.005a3.445,3.445,0,0,0-3.383,3.451q-.03,2.786.007,5.572a3.334,3.334,0,0,0,1.572,2.856.625.625,0,0,1,.313.611q-.012,4.939-.005,9.877v.453c.915,0,1.781.007,2.647-.011.077,0,.2-.154.216-.25.185-1.142.351-2.286.525-3.43q.22-1.446.444-2.892h.061q.5,3.278,1.01,6.567Zm20.064.012v-.459q0-4.954-.006-9.909a.567.567,0,0,1,.292-.549,3.239,3.239,0,0,0,1.582-2.7c.044-1.988.039-3.978,0-5.967a3.393,3.393,0,0,0-3.106-3.219c-1.673-.061-3.35-.016-5.025-.012a2.28,2.28,0,0,0-.389.066,12.826,12.826,0,0,1,.6,1.468,6.251,6.251,0,0,1,.237,1.564q.039,3.038,0,6.075a5.571,5.571,0,0,1-1.488,3.745.826.826,0,0,0-.2.5c-.012,3.014-.009,6.028-.008,9.041,0,.106.012.212.02.358.824,0,1.628.006,2.432-.011.066,0,.171-.152.186-.245.158-.974.3-1.952.449-2.928q.258-1.7.52-3.4h.059l1.014,6.581Zm-13.685-24.235a4,4,0,1,0-4.018-3.982A3.989,3.989,0,0,0,1032.3,1299.267Zm9.806-6.635a3.676,3.676,0,1,0,3.7,3.658A3.667,3.667,0,0,0,1042.106,1292.631Zm-19.828,0a3.675,3.675,0,1,0,3.681,3.67A3.665,3.665,0,0,0,1022.278,1292.632Z" transform="translate(0)" fill="#fff"/>
    <path id="Path_568" data-name="Path 568" d="M1099.079,1377.052c-.916,0-1.771.007-2.626-.012-.083,0-.219-.161-.235-.262-.349-2.213-.684-4.429-1.022-6.643a.249.249,0,0,0-.115-.185l-1.084,7.087h-3.073v-.428q0-5.445.006-10.89a.557.557,0,0,0-.3-.542,3.689,3.689,0,0,1-1.772-3.212c-.02-1.965-.025-3.932,0-5.9a3.8,3.8,0,0,1,3.941-3.876q2.207-.008,4.413,0a3.787,3.787,0,0,1,3.929,3.917c.01,1.917,0,3.835,0,5.752a3.731,3.731,0,0,1-1.865,3.375c-.219.136-.2.3-.2.488q0,5.427,0,10.853Z" transform="translate(-62.817 -52.182)" fill="#136a36"/>
    <path id="Path_569" data-name="Path 569" d="M1048.6,1418.768c-.152.17-.318.329-.451.512a1.1,1.1,0,0,0,0,1.466,5.093,5.093,0,0,0,1.245,1.018,14.609,14.609,0,0,0,4.293,1.455,57.112,57.112,0,0,0,14.209.974,46.835,46.835,0,0,0,8.417-1.043,15.393,15.393,0,0,0,3.722-1.246,5.779,5.779,0,0,0,1.221-.825,1.292,1.292,0,0,0,.014-2.1,1.71,1.71,0,0,1-.241-.274,7.784,7.784,0,0,1,3.654,2.482,2.08,2.08,0,0,1-.057,2.588,6.046,6.046,0,0,1-2.087,1.7,21.784,21.784,0,0,1-5.813,2.019,56.025,56.025,0,0,1-13.22,1.171,50.881,50.881,0,0,1-11.737-1.459,16.975,16.975,0,0,1-5.08-2.015,7.23,7.23,0,0,1-1.574-1.36,2.078,2.078,0,0,1,0-2.814,6.872,6.872,0,0,1,2.435-1.832c.329-.169.671-.312,1.006-.468Z" transform="translate(-32.606 -97.568)" fill="#136a36"/>
    <path id="Path_570" data-name="Path 570" d="M1068.341,1377.082h-2.588q-.506-3.293-1.01-6.567h-.061q-.222,1.445-.444,2.892c-.174,1.144-.34,2.288-.525,3.43-.016.1-.14.248-.216.25-.866.018-1.732.011-2.647.011v-.453q0-4.939.005-9.877a.625.625,0,0,0-.313-.611,3.334,3.334,0,0,1-1.572-2.856q-.042-2.786-.007-5.572a3.445,3.445,0,0,1,3.383-3.451c1.518-.039,3.038-.011,4.558-.005a6.367,6.367,0,0,1,.646.07c-.068.132-.113.224-.163.313a5.07,5.07,0,0,0-.706,2.44c-.017,2.171-.03,4.342-.005,6.512a5.427,5.427,0,0,0,1.478,3.6.73.73,0,0,1,.193.431c.011,3.075.008,6.15.008,9.226C1068.354,1376.921,1068.347,1376.979,1068.341,1377.082Z" transform="translate(-42.419 -53.592)" fill="#136a36"/>
    <path id="Path_571" data-name="Path 571" d="M1135.558,1377.108h-2.825l-1.014-6.581h-.059q-.26,1.7-.519,3.4c-.148.976-.291,1.953-.449,2.928-.015.093-.12.244-.185.245-.8.017-1.608.011-2.432.011-.009-.146-.02-.253-.02-.358,0-3.014,0-6.028.008-9.041a.826.826,0,0,1,.2-.5,5.572,5.572,0,0,0,1.488-3.745q.033-3.038,0-6.076a6.251,6.251,0,0,0-.237-1.564,12.815,12.815,0,0,0-.6-1.468,2.292,2.292,0,0,1,.389-.066c1.675,0,3.352-.049,5.025.012a3.392,3.392,0,0,1,3.106,3.219c.038,1.988.042,3.978,0,5.967a3.239,3.239,0,0,1-1.582,2.7.567.567,0,0,0-.292.55q.014,4.955.006,9.909Z" transform="translate(-89.573 -53.605)" fill="#136a36"/>
    <path id="Path_572" data-name="Path 572" d="M1099.968,1332.672a4,4,0,1,1,3.992-4A4,4,0,0,1,1099.968,1332.672Z" transform="translate(-67.667 -33.405)" fill="#136a36"/>
    <path id="Path_573" data-name="Path 573" d="M1131.612,1328.969a3.676,3.676,0,1,1-3.657,3.7A3.681,3.681,0,0,1,1131.612,1328.969Z" transform="translate(-89.506 -36.337)" fill="#136a36"/>
    <path id="Path_574" data-name="Path 574" d="M1069.169,1328.97a3.675,3.675,0,1,1-3.668,3.683A3.664,3.664,0,0,1,1069.169,1328.97Z" transform="translate(-46.891 -36.338)" fill="#136a36"/>
  </g>
</svg>
