<svg xmlns="http://www.w3.org/2000/svg" width="72.279" height="47.648" viewBox="0 0 72.279 47.648">
  <g id="Group_264" data-name="Group 264" transform="translate(-157.077 -1387.653)">
    <path id="Path_579" data-name="Path 579" d="M204.188,1393.365c-7.64,1.9-13.894,5.149-16.039,13.13-2.056,7.649.114,14.157,6.247,19.634-2.1.3-3.969.7-5.858.823a26.969,26.969,0,0,1-15.318-4,52.7,52.7,0,0,1-15.48-13.828,2.672,2.672,0,0,1-.134-3.349c5.651-7.283,12.314-13.315,21.119-16.56,6.863-2.529,13.594-1.886,20.122,1.247C200.607,1391.3,202.285,1392.323,204.188,1393.365Zm-28.345,13.756c.208,1.206.332,2.434.646,3.611a2.7,2.7,0,0,0,3.276,1.875,2.788,2.788,0,0,0,2.116-3.224c-.05-.3-.121-.588-.174-.884-.667-3.7,1.029-6.28,4.689-7.144a2.806,2.806,0,0,0,2.075-3.655c-.47-1.439-1.89-2.136-3.669-1.8A11.441,11.441,0,0,0,175.843,1407.12Zm.782,11.235a15.077,15.077,0,0,1,1.565-22.8c-5.839,2.749-10.5,6.942-14.7,11.786A46.859,46.859,0,0,0,176.625,1418.355Z" fill="#fff"/>
    <path id="Path_580" data-name="Path 580" d="M279.211,1437.081l1.523,1.459c1.885-.9,2.387-.808,3.921.723,1.721,1.718,3.445,3.431,5.155,5.159a2.432,2.432,0,0,1,.007,3.749q-1.412,1.427-2.845,2.834a2.47,2.47,0,0,1-3.708-.019q-2.766-2.737-5.513-5.495c-1.175-1.179-1.265-2.062-.326-3.612l-1.677-1.381a15.006,15.006,0,1,1,3.462-3.418Zm-12.206-19.19a10.343,10.343,0,1,0,10.377,10.349A10.31,10.31,0,0,0,267.005,1417.891Z" transform="translate(-61.339 -16.532)" fill="#fff"/>
    <path id="Path_581" data-name="Path 581" d="M276.578,1465.226a8.971,8.971,0,0,1-6.365-4.442,13.152,13.152,0,0,1-1.108-2.536,1.485,1.485,0,0,1,.993-1.952,1.51,1.51,0,0,1,1.93,1.046,6.58,6.58,0,0,0,5.118,4.855,1.5,1.5,0,0,1,1.235,1.752A1.594,1.594,0,0,1,276.578,1465.226Z" transform="translate(-72.33 -44.305)" fill="#fff"/>
    <path id="Path_582" data-name="Path 582" d="M271.524,1446.245a1.506,1.506,0,0,1-1.518-1.5,1.527,1.527,0,0,1,1.512-1.514,1.543,1.543,0,0,1,1.526,1.509A1.515,1.515,0,0,1,271.524,1446.245Z" transform="translate(-72.97 -35.91)" fill="#fff"/>
  </g>
</svg>
