<svg xmlns="http://www.w3.org/2000/svg" width="38" height="38" viewBox="0 0 38 38">
  <g id="Group_280" data-name="Group 280" transform="translate(0 0.129)">
    <circle id="Ellipse_1" data-name="Ellipse 1" cx="19" cy="19" r="19" transform="translate(0 -0.129)" fill="#136a36"/>
    <g id="Group_279" data-name="Group 279" transform="translate(8.641 8.784)">
      <path id="Path_616" data-name="Path 616" d="M3256.721,997a3.508,3.508,0,0,1,.208.285c.266.451.524.906.789,1.357q.761,1.3,1.526,2.594c.052.088.1.176.153.264a.766.766,0,0,1-.1,1c-.412.408-.854.787-1.282,1.178-.3.27-.6.533-.885.81a.7.7,0,0,0-.147.916c.365.653.725,1.311,1.126,1.942a14.244,14.244,0,0,0,5.111,4.785c.373.211.748.42,1.128.617a.674.674,0,0,0,.859-.142c.354-.375.683-.774,1.031-1.154.323-.354.646-.709.99-1.041a.746.746,0,0,1,.965-.1c.362.215.7.467,1.068.677.8.46,1.617.894,2.417,1.356.338.195.65.433.975.65.015.01.042,0,.063,0V1014c-.029.035-.073.065-.083.105-.038.14-.061.284-.1.425a2.752,2.752,0,0,1-.782,1.547,6.9,6.9,0,0,1-3.059,1.546.738.738,0,0,0-.176.092h-1.661c-.036-.029-.068-.071-.109-.084-.755-.238-1.516-.458-2.266-.711a14.82,14.82,0,0,1-3.672-1.753,27.511,27.511,0,0,1-4.034-3.5,18.217,18.217,0,0,1-4.7-8.684.473.473,0,0,0-.085-.13V1001.2c.029-.043.076-.083.085-.13a6.978,6.978,0,0,1,1.3-2.8,2.447,2.447,0,0,1,1.464-.993c.241-.055.481-.112.719-.176a.569.569,0,0,0,.146-.093Z" transform="translate(-3252 -997)" fill="#fff"/>
    </g>
  </g>
</svg>
