<svg xmlns="http://www.w3.org/2000/svg" width="77.428" height="74.375" viewBox="0 0 77.428 74.375">
  <g id="Group_277" data-name="Group 277" transform="translate(-2368.252 -968.035)">
    <g id="Group_275" data-name="Group 275">
      <path id="Path_601" data-name="Path 601" d="M2427.217,991.4a54.671,54.671,0,0,0,6.8-22.874,52.067,52.067,0,0,0-24.315,2.444l.5,3.418.2,1.381-3.058-.781-4.48-1.144c-12.907,6.505-26.645,20.005-34.365,47.505-.018.067-.039.131-.055.187-.038.13-.069.245-.1.337s-.054.205-.083.3l-.015.059a93.41,93.41,0,0,0,25.492-5.025l4.192-4.038,6.637-6.39-.335,3.242-.29,2.841C2412.832,1008.295,2421.452,1001.5,2427.217,991.4Z" fill="#62a115"/>
      <path id="Path_602" data-name="Path 602" d="M2368.252,1022.233s16.162-18.973,29.165-30.073,36.6-23.638,36.6-23.638-6.447,10.885-31.037,30.584S2368.252,1022.233,2368.252,1022.233Z" fill="#53870a" opacity="0.5"/>
      <path id="Path_603" data-name="Path 603" d="M2407.346,974.985l-4.48-1.144c-12.907,6.505-26.645,20.005-34.365,47.505,1.237-4.108,7.4-21.806,25.908-38.635C2398.958,978.573,2403.345,976.118,2407.346,974.985Z" fill="#3c6004" opacity="0.25"/>
      <path id="Path_604" data-name="Path 604" d="M2427.217,991.4a54.671,54.671,0,0,0,6.8-22.874,52.067,52.067,0,0,0-24.315,2.444l.5,3.418C2420.932,972.935,2428.209,981.313,2427.217,991.4Z" fill="#3c6004" opacity="0.25"/>
      <path id="Path_605" data-name="Path 605" d="M2401.915,1003.612c-8.022,7.282-18.9,12.063-21.966,14.859-1.543,1.407,8.56-1.117,17.987-5.3l6.637-6.39-.335,3.242a37.684,37.684,0,0,0,4.206-2.746C2417.988,999.973,2409.938,996.33,2401.915,1003.612Z" fill="#fff" opacity="0.1"/>
      <path id="Path_606" data-name="Path 606" d="M2415.359,997.117c-.316,2.858,9.234-2.779,8.377-7.053S2416.084,990.549,2415.359,997.117Z" fill="#fff" opacity="0.1"/>
      <path id="Path_607" data-name="Path 607" d="M2409.176,980.858c3.291-2.635-6.55-5.187-13.405,1.844s-13.146,15.833-10.915,16.27S2403.967,985.032,2409.176,980.858Z" fill="#fff" opacity="0.1"/>
      <path id="Path_608" data-name="Path 608" d="M2368.252,1022.234s17.884-16.825,31.123-27.631,34.642-26.084,34.642-26.084-8.42,8.422-33.01,28.121S2368.252,1022.234,2368.252,1022.234Z" fill="#325102" opacity="0.5"/>
    </g>
    <g id="Group_276" data-name="Group 276">
      <path id="Path_609" data-name="Path 609" d="M2439.2,1022.175l-.86-4.7,1.651,2.483,1.234,1.848c3.865-10.028,6.348-22.671,2.6-35.474a47.84,47.84,0,0,0-9.823-17.78s-31.9,25.587-4.664,73.176c.027.05.056.1.079.146.055.1.106.186.149.256s.091.155.135.234l.027.045a82.736,82.736,0,0,0,10.053-17.1Z" fill="#62a115"/>
      <path id="Path_610" data-name="Path 610" d="M2429.726,1042.409s-2.372-21.53-1.812-36.415S2434,968.552,2434,968.552s2.913,10.531,1.087,37.921S2429.726,1042.409,2429.726,1042.409Z" fill="#53870a" opacity="0.5"/>
      <path id="Path_611" data-name="Path 611" d="M2443.825,986.331A47.893,47.893,0,0,0,2434,968.552s-31.9,25.589-4.665,73.177c-1.756-3.2-8.864-17.537-8.675-39.327S2436,976.9,2443.825,986.331Z" fill="#3c6004" opacity="0.25"/>
      <path id="Path_612" data-name="Path 612" d="M2439.2,1022.175l-.86-4.7,1.651,2.483a55.168,55.168,0,0,0,2.936-12.226c.91-10.432-5.668-7.372-5.758,2.065s-3.229,19.251-3.256,22.865C2433.907,1034.177,2436.709,1028.9,2439.2,1022.175Z" fill="#fff" opacity="0.1"/>
      <path id="Path_613" data-name="Path 613" d="M2440.705,997.327c1.521,1.877,3.424-7.583.419-9.531S2437.21,993.014,2440.705,997.327Z" fill="#fff" opacity="0.1"/>
      <path id="Path_614" data-name="Path 614" d="M2427.672,991.795c.244-3.665-6.672,1.187-6.268,9.724s2.167,17.747,3.651,16.564S2427.285,997.6,2427.672,991.795Z" fill="#fff" opacity="0.1"/>
      <path id="Path_615" data-name="Path 615" d="M2429.727,1042.41s-.153-21.383.711-36.247,3.56-37.611,3.56-37.611.369,10.361-1.457,37.751S2429.727,1042.41,2429.727,1042.41Z" fill="#325102" opacity="0.5"/>
    </g>
  </g>
</svg>
