<svg xmlns="http://www.w3.org/2000/svg" width="55.637" height="56.039" viewBox="0 0 55.637 56.039">
  <g id="Group_265" data-name="Group 265" transform="translate(246.962 -1714.529)">
    <path id="Path_583" data-name="Path 583" d="M-246.962,1829.295c2.743-2.725,5.509-5.428,8.224-8.181a13.34,13.34,0,0,1,10.825-4.178,16.38,16.38,0,0,1,4.63,1.185,3.182,3.182,0,0,0,1.138.191c3.593-.008,7.187.056,10.778-.03a3.75,3.75,0,0,1,3.905,3.649,3.773,3.773,0,0,1-3.835,3.764c-2.288.043-4.577.006-6.865.012a1.359,1.359,0,0,0-1.509,1.526,1.26,1.26,0,0,0,1.111,1.217,57.436,57.436,0,0,0,8.633-.127,6.431,6.431,0,0,0,5.255-5.682,1.581,1.581,0,0,1,.422-.966q3.066-3.426,6.1-6.876a4.011,4.011,0,0,1,5.507-.45,3.814,3.814,0,0,1,.348,5.418q-6.422,7.417-12.882,14.8a9.129,9.129,0,0,1-7.221,3.193c-4.1,0-8.193.038-12.289-.016-2.081-.027-4.162-.028-6.243-.061a1.191,1.191,0,0,0-.963.394c-.983,1.022-1.99,2.02-2.989,3.028h-.137a3.544,3.544,0,0,0-.291-.369q-3.723-3.645-7.453-7.283c-1.391-1.352-2.8-2.682-4.205-4.022Z" transform="translate(0 -70.538)" fill="#fff"/>
    <path id="Path_584" data-name="Path 584" d="M-161.917,1764.89c-.572,0-1.144.01-1.716,0a2.746,2.746,0,0,1-2.7-2.73,2.735,2.735,0,0,1,2.627-2.733c1.142-.038,2.29-.057,3.43.007.7.039.842-.209.808-.846-.053-.981-.023-1.967-.012-2.95a2.754,2.754,0,0,1,2.754-2.812,2.716,2.716,0,0,1,2.69,2.854c0,1.007.032,2.015-.012,3.02-.024.551.1.762.7.732,1.05-.053,2.1-.022,3.156-.013a2.72,2.72,0,0,1,2.888,2.737,2.726,2.726,0,0,1-2.886,2.737c-1.052,0-2.106.038-3.156-.014-.6-.03-.723.186-.7.735.043,1.028.015,2.058.012,3.088a2.688,2.688,0,0,1-2.688,2.784,2.729,2.729,0,0,1-2.754-2.735c-.02-1.075-.033-2.151.008-3.225.02-.53-.164-.675-.664-.642C-160.726,1764.92-161.323,1764.89-161.917,1764.89Z" transform="translate(-57.491 -27.304)" fill="#fff"/>
    <path id="Path_585" data-name="Path 585" d="M-197.379,1734.87c-.544.027-1.26-.146-1.588.134-.387.331-.1,1.073-.13,1.635-.024.388.012.779-.008,1.167a2.008,2.008,0,0,1-2.106,2.052,2.006,2.006,0,0,1-1.97-2.116c-.016-.755-.03-1.512.007-2.265.023-.47-.157-.585-.592-.57-.777.028-1.556.023-2.334,0a2,2,0,0,1-2.028-1.988,2.008,2.008,0,0,1,2.058-2.026c.732-.014,1.466-.033,2.2.007.52.028.742-.1.7-.671-.052-.729-.02-1.464-.011-2.2a1.984,1.984,0,0,1,1.986-2.087,1.977,1.977,0,0,1,2.061,2.015,19.127,19.127,0,0,1-.008,2.2c-.051.635.193.785.778.745.706-.049,1.418-.019,2.128-.01a1.968,1.968,0,0,1,2.052,2.018,1.987,1.987,0,0,1-2.092,1.984c-.366,0-.732,0-1.1,0Z" transform="translate(-27.69 -8.142)" fill="#fff"/>
    <path id="Path_586" data-name="Path 586" d="M-121.051,1722.221c-.366,0-.733.017-1.1,0a1.736,1.736,0,0,1-1.621-1.725,1.7,1.7,0,0,1,1.562-1.7,14.051,14.051,0,0,1,1.988-.01c.6.045.753-.185.711-.739a15.826,15.826,0,0,1-.006-1.715,1.7,1.7,0,0,1,1.748-1.8,1.706,1.706,0,0,1,1.75,1.794c.018.617.034,1.237-.006,1.852-.033.5.163.628.629.6.616-.035,1.235-.021,1.852,0a1.743,1.743,0,0,1,1.782,1.707,1.743,1.743,0,0,1-1.818,1.742,17.263,17.263,0,0,1-1.783-.011c-.576-.052-.7.189-.661.7.038.569.018,1.143.007,1.715a1.746,1.746,0,0,1-1.706,1.855,1.729,1.729,0,0,1-1.788-1.768,14.707,14.707,0,0,1,0-1.852c.038-.521-.139-.707-.652-.644A7.2,7.2,0,0,1-121.051,1722.221Z" transform="translate(-87.838)" fill="#fff"/>
  </g>
</svg>
