<svg id="Group_282" data-name="Group 282" xmlns="http://www.w3.org/2000/svg" width="38.36" height="38.341" viewBox="0 0 38.36 38.341">
  <path id="Path_617" data-name="Path 617" d="M3828,856.1v-1.879c.015-.157.031-.314.044-.471.017-.207.022-.415.047-.621.044-.359.094-.717.154-1.073.069-.405.138-.811.231-1.211a15.417,15.417,0,0,1,.655-2.2c.25-.633.518-1.259.793-1.881a9.419,9.419,0,0,1,.437-.836c.218-.383.437-.765.674-1.135a16.146,16.146,0,0,1,1.481-1.992c.319-.361.639-.72.966-1.074.14-.15.294-.286.446-.425.239-.22.474-.446.723-.654q.551-.46,1.12-.9a15.331,15.331,0,0,1,1.911-1.248c.433-.24.875-.462,1.319-.682.284-.141.573-.274.868-.392a16.154,16.154,0,0,1,2.042-.7c.608-.153,1.216-.307,1.83-.429.436-.087.88-.131,1.323-.181.361-.041.725-.061,1.088-.091a.434.434,0,0,0,.078-.022h1.88c.011.007.022.02.034.021.248.016.5.029.743.046.181.012.364.022.543.047.333.045.666.094,1,.153.4.072.793.149,1.187.238a15.553,15.553,0,0,1,2.25.683c.49.192.977.392,1.457.607.349.157.689.338,1.024.523.379.209.759.419,1.119.659.52.346,1.032.705,1.528,1.085.438.336.86.694,1.266,1.068.365.336.7.7,1.044,1.062.259.276.509.562.746.856q.436.541.841,1.1a16.663,16.663,0,0,1,1.292,2.113c.24.465.459.942.669,1.421a16.616,16.616,0,0,1,.677,1.855,16.846,16.846,0,0,1,.568,2.438c.071.483.141.967.2,1.452.032.286.033.576.048.864a.413.413,0,0,0,.021.078v1.57c-.007.011-.02.022-.021.034-.016.273-.029.547-.046.82-.012.185-.022.371-.046.555-.045.34-.093.681-.153,1.018-.077.429-.144.862-.256,1.283-.177.663-.369,1.324-.59,1.974-.178.52-.394,1.03-.62,1.531-.194.431-.412.853-.644,1.266-.257.459-.522.917-.82,1.35-.368.536-.762,1.056-1.167,1.565a13.2,13.2,0,0,1-.96,1.091c-.459.462-.943.9-1.425,1.34a9.771,9.771,0,0,1-.757.622c-.389.288-.782.571-1.188.834q-.65.42-1.327.8c-.382.213-.779.4-1.173.589a7.449,7.449,0,0,1-.7.307c-.637.229-1.271.467-1.919.661-.551.165-1.117.281-1.68.4-.381.082-.767.144-1.153.2-.353.049-.707.083-1.062.111-.306.025-.614.042-.921.044a18.461,18.461,0,0,1-2.155-.063c-.2-.021-.394-.022-.588-.048-.337-.044-.673-.094-1.008-.154-.4-.072-.808-.151-1.209-.239a14.876,14.876,0,0,1-2.111-.626c-.572-.219-1.137-.455-1.7-.706-.372-.167-.732-.364-1.089-.562s-.7-.4-1.034-.612a15.337,15.337,0,0,1-1.687-1.22c-.4-.337-.8-.668-1.176-1.027-.4-.377-.765-.782-1.141-1.18-.168-.177-.333-.359-.483-.551q-.444-.569-.868-1.152a13.972,13.972,0,0,1-1.134-1.817c-.314-.614-.624-1.232-.9-1.864a14.369,14.369,0,0,1-.728-2.089c-.14-.532-.276-1.067-.382-1.607-.1-.507-.162-1.021-.224-1.534-.044-.368-.062-.74-.092-1.11A.374.374,0,0,0,3828,856.1Zm7.886,7.557h22.739l-8.174-8.17c-.169.129-.351.265-.531.4q-1.283.984-2.565,1.969a.122.122,0,0,1-.175,0c-.216-.17-.436-.336-.654-.5l-1.85-1.42-.6-.46Zm22.75-16.986h-22.7c.022.02.03.029.041.037q.587.454,1.175.907l2,1.534,2,1.533q.951.731,1.9,1.462,1.051.807,2.1,1.613,1.021.784,2.039,1.572a.112.112,0,0,0,.162,0q1.2-.925,2.4-1.845,1.166-.893,2.334-1.783,1.113-.853,2.224-1.711,1.038-.8,2.078-1.591l1.574-1.2C3858.179,847.025,3858.4,846.854,3858.635,846.669Zm-16.194,7.546-6.649-5.1v11.751Zm16.3,6.649V849.125l-6.646,5.1Z" transform="translate(-3828 -836)" fill="#136a36"/>
  <path id="Path_618" data-name="Path 618" d="M3913.549,1055.413l8.189-8.185.6.46,1.85,1.42c.218.167.438.333.654.5a.122.122,0,0,0,.175,0q1.282-.986,2.566-1.969c.18-.138.361-.275.531-.4l8.174,8.17Z" transform="translate(-3905.664 -1027.758)" fill="#fff"/>
  <path id="Path_619" data-name="Path 619" d="M3936.761,951.744c-.238.185-.456.356-.676.524l-1.574,1.2q-1.039.8-2.079,1.591-1.113.854-2.223,1.711c-.777.6-1.557,1.188-2.334,1.783q-1.2.92-2.4,1.845a.112.112,0,0,1-.162,0q-1.018-.787-2.039-1.572-1.051-.808-2.1-1.613l-1.9-1.462-2-1.533-2-1.534q-.589-.452-1.176-.907l-.041-.037Z" transform="translate(-3906.125 -941.075)" fill="#fff"/>
  <path id="Path_620" data-name="Path 620" d="M3919.185,983.333l-6.649,6.646V978.228Z" transform="translate(-3904.744 -965.118)" fill="#fff"/>
  <path id="Path_621" data-name="Path 621" d="M4096.077,990.134l-6.647-6.643,6.647-5.1Z" transform="translate(-4065.333 -965.271)" fill="#fff"/>
</svg>
