<svg xmlns="http://www.w3.org/2000/svg" width="90.209" height="86.185" viewBox="0 0 90.209 86.185">
  <g id="Group_274" data-name="Group 274" transform="translate(-1814.52 -231.444)">
    <g id="Group_273" data-name="Group 273" transform="translate(1887.706 226.978) rotate(77)" style="isolation: isolate">
      <g id="Group_271" data-name="Group 271" transform="translate(0 19.852)">
        <path id="Path_587" data-name="Path 587" d="M51.364.647A46.908,46.908,0,0,1,75.7,3.108S66.592,62.405.939,54.54c-.071-.009-.139-.015-.2-.021-.138-.014-.259-.03-.357-.042s-.216-.03-.321-.04L0,54.427S16.6,6.78,51.364.647Z" transform="translate(0 0)" fill="#62a115"/>
        <path id="Path_588" data-name="Path 588" d="M0,51.319S24.1,41.3,39.527,31.366,75.7,0,75.7,0,62.919,2.509,34.983,21.869,0,51.319,0,51.319Z" transform="translate(0 3.108)" fill="#53870a" opacity="0.5"/>
        <path id="Path_589" data-name="Path 589" d="M50.425.647A46.908,46.908,0,0,1,74.756,3.108S65.653,62.405,0,54.54c4.375.424,23.535,1.3,46.471-12.376S64.8,5.524,50.425.647Z" transform="translate(0.939 0)" fill="#3c6004" opacity="0.25"/>
        <path id="Path_590" data-name="Path 590" d="M.353,30.3C-2.359,31.9,11.124,10.312,21.642,2.644s10.987,3.2,1.058,9.13S4.159,28.038.353,30.3Z" transform="translate(7.593 12.406)" fill="#fff" opacity="0.1"/>
        <path id="Path_591" data-name="Path 591" d="M.549,7.047C-2.292,6.127,6.64-2.3,10.392.605S7.078,9.162.549,7.047Z" transform="translate(40.943 4.63)" fill="#fff" opacity="0.1"/>
        <path id="Path_592" data-name="Path 592" d="M26.337.351c3.738-2.591,2.5,9.838-6.754,14.544S-.4,22.866.012,20.112,20.419,4.452,26.337.351Z" transform="translate(28.342 25.71)" fill="#fff" opacity="0.1"/>
        <path id="Path_593" data-name="Path 593" d="M0,51.315S22.7,38.354,37.929,28.021,75.7,0,75.7,0,64.533,5.877,36.6,25.237,0,51.315,0,51.315Z" transform="translate(0 3.112)" fill="#325102" opacity="0.5"/>
      </g>
      <g id="Group_272" data-name="Group 272" transform="translate(29.472 0)">
        <path id="Path_594" data-name="Path 594" d="M38.242,8.381a39.366,39.366,0,0,1,7.96,14.53S21.335,44.98.3,5.214C.278,5.171.255,5.131.235,5.1.19,5.012.152,4.938.121,4.879s-.068-.132-.1-.2L0,4.645S23.36-7.972,38.242,8.381Z" transform="translate(0 0)" fill="#62a115"/>
        <path id="Path_595" data-name="Path 595" d="M0,.024s12.415,8.7,21.638,12.665S46.2,18.29,46.2,18.29,40.641,12.4,23.436,5.848,0,.024,0,.024Z" transform="translate(0 4.621)" fill="#53870a" opacity="0.5"/>
        <path id="Path_596" data-name="Path 596" d="M37.942,3.167A39.366,39.366,0,0,1,45.9,17.7S21.035,39.766,0,0A50.278,50.278,0,0,0,21.412,19.952C34.729,26.341,41.4,13.315,37.942,3.167Z" transform="translate(0.3 5.214)" fill="#3c6004" opacity="0.25"/>
        <path id="Path_597" data-name="Path 597" d="M.133,1.861c-1.572-.759,11.185-3.193,17.8-.9S20.769,8.475,15,5.714,2.339,2.926.133,1.861Z" transform="translate(7.02 1.807)" fill="#fff" opacity="0.1"/>
        <path id="Path_598" data-name="Path 598" d="M.054.993C-.646-.993,5.666.082,5.977,3.474S1.661,5.556.054.993Z" transform="translate(30.586 6.987)" fill="#fff" opacity="0.1"/>
        <path id="Path_599" data-name="Path 599" d="M16.929,5.615c2.3.876-2.666,5.871-7.745,2.922S-.988,1.165.165.136,13.284,4.227,16.929,5.615Z" transform="translate(13.282 16.202)" fill="#fff" opacity="0.1"/>
        <path id="Path_600" data-name="Path 600" d="M0,0S12.953,6.548,22.253,10.22s23.931,8.011,23.931,8.011-6.2-3.467-23.4-10.017S0,0,0,0Z" transform="translate(0.018 4.683)" fill="#325102" opacity="0.5"/>
      </g>
    </g>
  </g>
</svg>
