<svg xmlns="http://www.w3.org/2000/svg" width="70.837" height="57.109" viewBox="0 0 70.837 57.109">
  <g id="Group_263" data-name="Group 263" transform="translate(-658.101 -1393.756)">
    <path id="Path_575" data-name="Path 575" d="M707.984,1412.965l4.52-2.6c5.177,10.223,3.511,26.816-10.218,35.811a28.532,28.532,0,1,1,7.854-40.083l-2.753,1.6c-.045.026-.1.041-.144.065-.571.295-1.207.9-1.7.8-.51-.106-.886-.887-1.306-1.385a23.167,23.167,0,0,0-34.72-.551,22.441,22.441,0,0,0-5.837,12.3,22.127,22.127,0,0,0,.409,8.717c2.24,8.714,7.722,14.423,16.25,16.961,7.637,2.273,14.686.577,20.936-4.308a22.355,22.355,0,0,0,7.939-12.329,22.634,22.634,0,0,0-1.154-14.694A3.04,3.04,0,0,1,707.984,1412.965Z" fill="#fff"/>
    <path id="Path_576" data-name="Path 576" d="M718.682,1431.936a17.359,17.359,0,1,1-2.444-4.305c-.465.287-.918.577-1.382.851-1.082.641-2.181,1.254-3.248,1.919a.63.63,0,0,1-.934-.133,11.449,11.449,0,0,0-6.536-3.319,11.247,11.247,0,0,0-11.033,5.029c-2.517,4.088-2.639,8.313-.032,12.384a11.172,11.172,0,0,0,11.941,4.938,11.407,11.407,0,0,0,8.942-11.429c-.01-.828-.248-1.651-.339-2.481a.786.786,0,0,1,.193-.636C715.4,1433.8,717.018,1432.891,718.682,1431.936Z" transform="translate(-15.928 -15.91)" fill="#fff"/>
    <path id="Path_577" data-name="Path 577" d="M765.266,1399.339c-.267,1.449-.464,2.742-.755,4.013-.149.648.073.894.658,1.036,1.113.271,2.216.583,3.525.931-1.258.729-2.355,1.363-3.451,2-1.607.935-3.218,1.862-4.814,2.815a1.425,1.425,0,0,1-1.466.141c-1.536-.729-2.843-.358-4.292.524-4.627,2.816-9.357,5.462-14.046,8.175q-6.256,3.619-12.51,7.243a1.546,1.546,0,0,1-2-.2,1.458,1.458,0,0,1,.711-1.97q7.008-4.04,14.022-8.067,7.149-4.117,14.284-8.257a1.1,1.1,0,0,0,.469-.739,4.5,4.5,0,0,1,2.945-3.833C760.807,1402.071,762.919,1400.691,765.266,1399.339Z" transform="translate(-39.756 -3.271)" fill="#fff"/>
    <path id="Path_578" data-name="Path 578" d="M722.236,1450.108c-1.2.7-2.34,1.391-3.5,2.039a2.421,2.421,0,0,0-1.082,3.39,2.385,2.385,0,0,0,3.444.86c1.079-.624,2.167-1.23,3.272-1.856.3,2.069-1.447,4.582-3.6,5.267a5.628,5.628,0,1,1,1.461-9.7Z" transform="translate(-32.276 -32.338)" fill="#fff"/>
  </g>
</svg>
