<svg xmlns="http://www.w3.org/2000/svg" width="46.1" height="45.995" viewBox="0 0 46.1 45.995">
  <path id="Path_524" data-name="Path 524" d="M1306,916.7v-2.069c.014-.091.029-.183.041-.274.125-1.01.191-2.03.384-3.027a22.2,22.2,0,0,1,7.557-13.035,22.537,22.537,0,0,1,19.458-5.2,21.84,21.84,0,0,1,10.433,4.984,22.631,22.631,0,0,1,8.133,15.676,21.982,21.982,0,0,1-.883,8.5,22.764,22.764,0,0,1-8.955,12.3,22.469,22.469,0,0,1-10.713,3.977l-1.232.131h-2.211c-.311-.029-.621-.062-.932-.087a22.359,22.359,0,0,1-7.012-1.734,22.9,22.9,0,0,1-10.36-8.686,22.442,22.442,0,0,1-3.573-10.034C1306.085,917.645,1306.045,917.171,1306,916.7Zm13.162-5.674a36.678,36.678,0,0,0,.189,10.561l8.2-.33v-9.887Zm19.646,0-8.354.352v9.879l8.172.344A38.5,38.5,0,0,0,1338.809,911.02Zm2.879-.339a44.867,44.867,0,0,1-.17,11.243,45.134,45.134,0,0,1,6.3,1.142,20.181,20.181,0,0,0,.424-13.638A40.588,40.588,0,0,1,1341.688,910.681Zm-31.894-1.073a20.171,20.171,0,0,0,.394,13.234l6.343-1a36.159,36.159,0,0,1-.195-11.133A51.678,51.678,0,0,1,1309.794,909.608Zm20.654-1.107,7.871-.325a1.894,1.894,0,0,0-.026-.225c-.323-1.176-.6-2.366-.982-3.523a19.024,19.024,0,0,0-2.844-5.607,8.944,8.944,0,0,0-3.008-2.682c-.315-.162-.651-.284-1.01-.438Zm-2.895-12.727a6.087,6.087,0,0,0-1.662.83,11.463,11.463,0,0,0-3.121,3.44,24.235,24.235,0,0,0-2.851,6.966c-.094.367-.175.738-.266,1.12,2.65.211,5.268.294,7.9.33Zm2.9,28.348v11.52c.447-.209.869-.374,1.259-.6a9.511,9.511,0,0,0,3.025-2.906,20.592,20.592,0,0,0,2.69-5.555c.226-.689.419-1.389.649-2.158Zm-10.52.347c.258.821.483,1.61.754,2.384a19.45,19.45,0,0,0,3.163,5.938,8.681,8.681,0,0,0,3.062,2.512c.2.094.413.166.645.258V924.167C1325.02,924.182,1322.5,924.285,1319.929,924.469Zm2.154-27.685a19.715,19.715,0,0,0-6.574,3.963,20.179,20.179,0,0,0-4.64,6.176,52.773,52.773,0,0,0,5.987.948,30.489,30.489,0,0,1,1.972-5.858A23.288,23.288,0,0,1,1322.083,896.784Zm19.174,11.045a30.477,30.477,0,0,0,5.877-1.1,20.2,20.2,0,0,0-9.986-9.482A28.109,28.109,0,0,1,1341.258,907.829Zm-29.8,17.686a20.372,20.372,0,0,0,5.144,5.983,20.032,20.032,0,0,0,5.545,3.086,25.674,25.674,0,0,1-4.987-9.912Zm25.7,8.561a20.2,20.2,0,0,0,9.4-8.386,44.838,44.838,0,0,0-5.548-.938A27.156,27.156,0,0,1,1337.151,934.076Z" transform="translate(-1306 -892.665)" fill="#136a36"/>
</svg>
